<?xml version="1.0" encoding="UTF-8"?>
<svg width="150px" height="150px" viewBox="0 0 150 150" version="1.1" xmlns="http://www.w3.org/2000/svg" xmlns:xlink="http://www.w3.org/1999/xlink">
    <!-- Generator: Sketch 52.4 (67378) - http://www.bohemiancoding.com/sketch -->
    <title>分组 3</title>
    <desc>Created with Sketch.</desc>
    <g id="视觉规范" stroke="none" stroke-width="1" fill="none" fill-rule="evenodd">
        <g id="北京邮政后台规范" transform="translate(-1432.000000, -3245.000000)">
            <g id="分组-3" transform="translate(1432.000000, 3245.000000)">
                <rect id="矩形-copy" stroke="#DDDDDD" fill="#FFFFFF" x="0.5" y="0.5" width="149" height="149"></rect>
                <path d="M114.116778,33.9821836 C112.263489,32.3927318 109.729644,31.7196071 107.189733,32.1070505 L63.6341778,38.8644381 C58.6697777,39.6332566 54.7777778,44.1417604 54.7777778,49.1288892 L54.7777778,92.3563771 C52.5538,90.8672871 49.8802667,89.9920384 47,89.9920384 C39.2678001,89.9920384 33,96.2616206 33,103.996019 C33,111.730418 39.2678,118 47,118 C54.7322001,118 61.0000001,111.730418 61.0000001,103.996019 L61,64.2435413 L110.777778,56.5212795 L110.777778,84.381888 C108.5538,82.8927981 105.880267,82.0175492 103,82.0175492 C95.2678,82.0175492 88.9999999,88.2871314 88.9999999,96.0215301 C88.9999999,103.755929 95.2677999,110.025511 103,110.025511 C110.7322,110.025511 117,103.755929 117,96.0215301 L117,40.4417531 C117,37.9071882 115.948756,35.5518742 114.116778,33.9821836 Z" id="形状" fill="#666666" fill-rule="nonzero"></path>
                <path d="M47,111.776008 C42.7100889,111.776008 39.2222222,108.28715 39.2222222,103.996019 C39.2222222,99.7048881 42.7100889,96.2160298 47,96.2160298 C51.2899112,96.2160298 54.7777778,99.7048881 54.7777778,103.996019 C54.7777778,108.28715 51.2899111,111.776008 47,111.776008 Z" id="路径" fill="#73A891" fill-rule="nonzero"></path>
                <path d="M61,57.9451731 L61,49.1288892 C61,47.2339949 62.6770444,45.3118708 64.5880444,45.0154532 L108.1436,38.2580656 C108.915311,38.1394986 109.592755,38.3005444 110.066733,38.7079046 C110.531533,39.1060845 110.777622,39.7062328 110.777622,40.441753 L110.777622,50.2229112 L61,57.9451731 Z" id="路径" fill="#73A891" fill-rule="nonzero"></path>
                <path d="M103,103.801519 C98.7100888,103.801519 95.2222222,100.312661 95.2222222,96.0215301 C95.2222222,91.7303991 98.7100888,88.2415407 103,88.2415407 C107.289911,88.2415407 110.777778,91.7303991 110.777778,96.0215301 C110.777778,100.312661 107.289911,103.801519 103,103.801519 Z" id="路径" fill="#73A891" fill-rule="nonzero"></path>
            </g>
        </g>
    </g>
</svg>