<?xml version="1.0" encoding="UTF-8"?>
<svg width="40px" height="40px" viewBox="0 0 40 40" version="1.1" xmlns="http://www.w3.org/2000/svg" xmlns:xlink="http://www.w3.org/1999/xlink">
    <!-- Generator: Sketch 52.4 (67378) - http://www.bohemiancoding.com/sketch -->
    <title>头像</title>
    <desc>Created with Sketch.</desc>
    <g id="-" stroke="none" stroke-width="1" fill="none" fill-rule="evenodd">
        <g id="工作台" transform="translate(-1182.000000, -10.000000)" fill="#EDEDED" fill-rule="nonzero">
            <g id="用户" transform="translate(1182.000000, 10.000000)">
                <g id="头像">
                    <path d="M20.0568982,0.160401003 C9.17632547,0.160401003 0.274018379,9.06267343 0.274018379,19.9433032 C0.274018379,30.8237539 9.17632547,39.7259817 20.0569429,39.7259817 C30.9373366,39.7259817 39.839599,30.8237539 39.839599,19.9433032 C39.839599,9.06262867 30.9373366,0.160401003 20.0569429,0.160401003 L20.0568982,0.160401003 Z M20.5513863,6.09520453 C28.0935938,6.09520453 28.0935938,11.7828756 28.0935938,14.9974322 C28.0935938,18.212302 25.1261283,24.1471056 20.5513863,24.2706047 C16.1002775,24.2706047 13.0091787,18.3358459 13.0091787,14.9974322 C13.0092235,11.7828309 13.0091787,6.09520453 20.5513863,6.09520453 Z M20.0569429,38.613192 C14.3692783,38.613192 9.17632547,36.0165783 5.7143271,31.9365883 C6.2088152,30.7000311 6.82707073,29.3399748 7.69263747,28.5982194 C9.54718037,27.1143507 15.1110776,24.6415495 15.1110776,24.6415495 L18.5730759,31.3183321 L19.1912867,29.7109196 L18.2021763,27.732607 L20.1804866,25.7544734 L22.158797,27.732607 L21.2931855,29.8345082 L21.7878526,31.4419654 L25.3734395,24.8889057 C25.3734395,24.8889057 30.9372919,27.3616622 32.7920138,28.8455308 C33.6574017,29.4636081 34.275657,30.576532 34.6466013,31.5655093 C31.308281,35.8930793 25.9916503,38.613192 20.0568982,38.613192 L20.0569429,38.613192 Z" id="Shape"></path>
                </g>
            </g>
        </g>
    </g>
</svg>