<?xml version="1.0" encoding="UTF-8"?>
<svg width="150px" height="150px" viewBox="0 0 150 150" version="1.1" xmlns="http://www.w3.org/2000/svg" xmlns:xlink="http://www.w3.org/1999/xlink">
    <!-- Generator: Sketch 52.4 (67378) - http://www.bohemiancoding.com/sketch -->
    <title>分组 2</title>
    <desc>Created with Sketch.</desc>
    <g id="视觉规范" stroke="none" stroke-width="1" fill="none" fill-rule="evenodd">
        <g id="北京邮政后台规范" transform="translate(-1272.000000, -3245.000000)">
            <g id="分组-2" transform="translate(1272.000000, 3245.000000)">
                <rect id="矩形" stroke="#DDDDDD" fill="#FFFFFF" x="0.5" y="0.5" width="149" height="149"></rect>
                <g id="分组" transform="translate(30.000000, 33.000000)" fill-rule="nonzero">
                    <path d="M74.1481481,0 L16.8518519,0 C7.58333333,0 0,7.56 0,16.8 L0,67.2 C0,76.44 7.58333333,84 16.8518519,84 L74.1481481,84 C83.4166667,84 91,76.44 91,67.2 L91,16.8 C91,7.56 83.4166667,0 74.1481481,0 Z M6.74074074,63.84 L6.74074074,20.16 L84.2592593,20.16 L84.2592593,63.84 L6.74074074,63.84 Z M57.8018519,36.288 L43.9833333,28.056 C42.9722222,27.384 41.7925926,27.048 40.4444444,27.048 C36.737037,27.048 33.7037037,30.072 33.7037037,33.768 L33.7037037,50.4 C33.7037037,51.576 34.0407407,52.752 34.7148148,53.928 C35.5574074,55.44 37.0740741,56.616 38.9277778,56.952 C39.4333333,57.12 40.1074074,57.12 40.612963,57.12 C41.7925926,57.12 42.9722222,56.784 44.1518519,56.112 L57.9703704,47.88 C58.9814815,47.376 59.6555556,46.536 60.3296296,45.528 C62.0148148,42.336 61.0037037,38.136 57.8018519,36.288 Z" id="形状" fill="#666666"></path>
                    <polygon id="路径" fill="#73A891" points="54.262963 42 40.4444444 50.232 40.4444444 33.6"></polygon>
                    <path d="M16.8518519,6.72 L74.1481481,6.72 C78.5296296,6.72 82.237037,9.576 83.5851852,13.44 L7.41481481,13.44 C8.76296296,9.576 12.4703704,6.72 16.8518519,6.72 Z" id="路径" fill="#73A891"></path>
                    <path d="M74.1481481,77.28 L16.8518519,77.28 C12.4703704,77.28 8.76296296,74.424 7.41481481,70.56 L83.7537037,70.56 C82.237037,74.424 78.5296296,77.28 74.1481481,77.28 Z" id="路径" fill="#73A891"></path>
                </g>
            </g>
        </g>
    </g>
</svg>